<?xml version="1.0" encoding="UTF-8"?>
<!-- Generated by Pixelmator Pro 2.4.2 -->
<svg width="1000" height="1000" viewBox="0 0 1000 1000" xmlns="http://www.w3.org/2000/svg" xmlns:xlink="http://www.w3.org/1999/xlink">
    <path id="Ellipse" fill="#f87171" fill-rule="evenodd" stroke="none" d="M 1000 500 C 1000 223.857605 776.142395 0 500 0 C 223.85762 0 0 223.857605 0 500 C 0 776.142395 223.85762 1000 500 1000 C 776.142395 1000 1000 776.142395 1000 500 Z"/>
    <path id="Ellipse-copy" fill="none" stroke="#ffffff" stroke-width="96" stroke-linecap="round" stroke-linejoin="round" d="M 514.421875 271.765625 L 534.984375 274.640625 L 555.046875 279.53125 L 574.28125 286.3125 L 592.59375 294.84375 L 609.84375 305.046875 L 626 316.8125 L 640.6875 329.859375 L 650.984375 340.671875 L 657.96875 348.9375 L 669.40625 364.609375 L 679.609375 381.875 L 688.140625 400.171875 L 694.921875 419.40625 L 699.8125 439.4375 L 702.703125 460.015625 L 703.515625 478.734375 L 702.703125 497.4375 L 699.8125 518.015625 L 694.921875 538.046875 L 688.140625 557.28125 L 679.609375 575.59375 L 669.40625 592.84375 L 657.96875 608.546875 L 650.96875 616.8125 L 640.6875 627.59375 L 626 640.640625 L 609.84375 652.40625 L 592.59375 662.609375 L 574.28125 671.140625 L 555.046875 677.921875 L 535.015625 682.8125 L 514.4375 685.703125 L 495.734375 686.515625 L 477.015625 685.703125 L 456.4375 682.8125 L 436.40625 677.921875 L 417.171875 671.140625 L 398.875 662.609375 L 381.609375 652.40625 L 365.9375 640.96875 L 357.671875 633.984375 L 346.859375 623.6875 L 333.8125 609 L 322.046875 592.84375 L 311.84375 575.59375 L 303.3125 557.28125 L 296.53125 538.046875 L 291.640625 517.984375 L 288.765625 497.421875 L 287.953125 478.734375 L 288.765625 460.03125 L 291.640625 439.46875 L 296.53125 419.40625 L 303.3125 400.171875 L 311.84375 381.875 L 322.046875 364.609375 L 333.484375 348.9375 L 340.46875 340.671875 L 350.78125 329.84375 L 365.46875 316.8125 L 381.609375 305.046875 L 398.875 294.84375 L 417.171875 286.3125 L 436.40625 279.53125 L 456.46875 274.640625 L 477.03125 271.765625 L 495.734375 270.953125 Z M 655.473083 638.473083 L 749 732"/>
</svg>
